<?xml version="1.0" encoding="UTF-8" standalone="no"?>
<!DOCTYPE svg PUBLIC "-//W3C//DTD SVG 1.1//EN"
 "http://www.w3.org/Graphics/SVG/1.1/DTD/svg11.dtd">
<!-- Generated by graphviz version 15.0.0 (20260523.1842)
 -->
<!-- Title: hostel_schema Pages: 1 -->
<svg width="819pt" height="1152pt"
 viewBox="0.00 0.00 819.00 1152.00" xmlns="http://www.w3.org/2000/svg" xmlns:xlink="http://www.w3.org/1999/xlink">
<g id="graph0" class="graph" transform="scale(1 1) rotate(0) translate(21.6 1130.6)">
<title>hostel_schema</title>
<polygon fill="white" stroke="none" points="-21.6,21.6 -21.6,-1130.6 797.6,-1130.6 797.6,21.6 -21.6,21.6"/>
<!-- admins -->
<g id="node1" class="node">
<title>admins</title>
<polygon fill="#0f766e" stroke="none" points="33.5,-419.5 33.5,-444.5 180.25,-444.5 180.25,-419.5 33.5,-419.5"/>
<polygon fill="none" stroke="black" points="33.5,-419.5 33.5,-444.5 180.25,-444.5 180.25,-419.5 33.5,-419.5"/>
<text xml:space="preserve" text-anchor="start" x="82.88" y="-427.2" font-family="Helvetica,sans-Serif" font-weight="bold" font-size="14.00" fill="white">admins</text>
<polygon fill="#ccfbf1" stroke="none" points="33.5,-394.5 33.5,-419.5 62.25,-419.5 62.25,-394.5 33.5,-394.5"/>
<polygon fill="none" stroke="black" points="33.5,-394.5 33.5,-419.5 62.25,-419.5 62.25,-394.5 33.5,-394.5"/>
<text xml:space="preserve" text-anchor="start" x="38.5" y="-402.2" font-family="Helvetica,sans-Serif" font-weight="bold" font-size="14.00">PK</text>
<polygon fill="#ccfbf1" stroke="none" points="62.25,-394.5 62.25,-419.5 180.25,-419.5 180.25,-394.5 62.25,-394.5"/>
<polygon fill="none" stroke="black" points="62.25,-394.5 62.25,-419.5 180.25,-419.5 180.25,-394.5 62.25,-394.5"/>
<text xml:space="preserve" text-anchor="start" x="67.25" y="-402.2" font-family="Helvetica,sans-Serif" font-weight="bold" font-size="14.00">admin_id</text>
<text xml:space="preserve" text-anchor="start" x="127.25" y="-402.2" font-family="Helvetica,sans-Serif" font-size="14.00"> &#160;INT</text>
<polygon fill="none" stroke="black" points="33.5,-369.5 33.5,-394.5 62.25,-394.5 62.25,-369.5 33.5,-369.5"/>
<polygon fill="none" stroke="black" points="62.25,-369.5 62.25,-394.5 180.25,-394.5 180.25,-369.5 62.25,-369.5"/>
<text xml:space="preserve" text-anchor="start" x="67.25" y="-378.25" font-family="Helvetica,sans-Serif" font-size="14.00">name &#160;VARCHAR</text>
<polygon fill="none" stroke="black" points="33.5,-344.5 33.5,-369.5 62.25,-369.5 62.25,-344.5 33.5,-344.5"/>
<text xml:space="preserve" text-anchor="start" x="38.5" y="-353.25" font-family="Helvetica,sans-Serif" font-size="14.00">UK</text>
<polygon fill="none" stroke="black" points="62.25,-344.5 62.25,-369.5 180.25,-369.5 180.25,-344.5 62.25,-344.5"/>
<text xml:space="preserve" text-anchor="start" x="67.25" y="-353.25" font-family="Helvetica,sans-Serif" font-size="14.00">email &#160;VARCHAR</text>
<polygon fill="none" stroke="black" points="33.5,-319.5 33.5,-344.5 62.25,-344.5 62.25,-319.5 33.5,-319.5"/>
<polygon fill="none" stroke="black" points="62.25,-319.5 62.25,-344.5 180.25,-344.5 180.25,-319.5 62.25,-319.5"/>
<text xml:space="preserve" text-anchor="start" x="67.25" y="-328.25" font-family="Helvetica,sans-Serif" font-size="14.00">password_hash</text>
</g>
<!-- students -->
<g id="node2" class="node">
<title>students</title>
<polygon fill="#4f46e5" stroke="none" points="12.12,-664 12.12,-689 201.62,-689 201.62,-664 12.12,-664"/>
<polygon fill="none" stroke="black" points="12.12,-664 12.12,-689 201.62,-689 201.62,-664 12.12,-664"/>
<text xml:space="preserve" text-anchor="start" x="78.75" y="-671.7" font-family="Helvetica,sans-Serif" font-weight="bold" font-size="14.00" fill="white">students</text>
<polygon fill="#eef2ff" stroke="none" points="12.12,-639 12.12,-664 40.88,-664 40.88,-639 12.12,-639"/>
<polygon fill="none" stroke="black" points="12.12,-639 12.12,-664 40.88,-664 40.88,-639 12.12,-639"/>
<text xml:space="preserve" text-anchor="start" x="17.12" y="-646.7" font-family="Helvetica,sans-Serif" font-weight="bold" font-size="14.00">PK</text>
<polygon fill="#eef2ff" stroke="none" points="40.88,-639 40.88,-664 201.62,-664 201.62,-639 40.88,-639"/>
<polygon fill="none" stroke="black" points="40.88,-639 40.88,-664 201.62,-664 201.62,-639 40.88,-639"/>
<text xml:space="preserve" text-anchor="start" x="45.88" y="-646.7" font-family="Helvetica,sans-Serif" font-weight="bold" font-size="14.00">student_id</text>
<text xml:space="preserve" text-anchor="start" x="114.12" y="-646.7" font-family="Helvetica,sans-Serif" font-size="14.00"> &#160;INT</text>
<polygon fill="none" stroke="black" points="12.12,-614 12.12,-639 40.88,-639 40.88,-614 12.12,-614"/>
<polygon fill="none" stroke="black" points="40.88,-614 40.88,-639 201.62,-639 201.62,-614 40.88,-614"/>
<text xml:space="preserve" text-anchor="start" x="45.88" y="-622.75" font-family="Helvetica,sans-Serif" font-size="14.00">name &#160;VARCHAR</text>
<polygon fill="none" stroke="black" points="12.12,-589 12.12,-614 40.88,-614 40.88,-589 12.12,-589"/>
<text xml:space="preserve" text-anchor="start" x="17.12" y="-597.75" font-family="Helvetica,sans-Serif" font-size="14.00">UK</text>
<polygon fill="none" stroke="black" points="40.88,-589 40.88,-614 201.62,-614 201.62,-589 40.88,-589"/>
<text xml:space="preserve" text-anchor="start" x="45.88" y="-597.75" font-family="Helvetica,sans-Serif" font-size="14.00">email &#160;VARCHAR</text>
<polygon fill="none" stroke="black" points="12.12,-564 12.12,-589 40.88,-589 40.88,-564 12.12,-564"/>
<polygon fill="none" stroke="black" points="40.88,-564 40.88,-589 201.62,-589 201.62,-564 40.88,-564"/>
<text xml:space="preserve" text-anchor="start" x="45.88" y="-572.75" font-family="Helvetica,sans-Serif" font-size="14.00">password_hash</text>
<polygon fill="none" stroke="black" points="12.12,-539 12.12,-564 40.88,-564 40.88,-539 12.12,-539"/>
<polygon fill="none" stroke="black" points="40.88,-539 40.88,-564 201.62,-564 201.62,-539 40.88,-539"/>
<text xml:space="preserve" text-anchor="start" x="45.88" y="-547.75" font-family="Helvetica,sans-Serif" font-size="14.00">phone, gender, course</text>
<polygon fill="none" stroke="black" points="12.12,-514 12.12,-539 40.88,-539 40.88,-514 12.12,-514"/>
<polygon fill="none" stroke="black" points="40.88,-514 40.88,-539 201.62,-539 201.62,-514 40.88,-514"/>
<text xml:space="preserve" text-anchor="start" x="45.88" y="-522.75" font-family="Helvetica,sans-Serif" font-size="14.00">year_of_study &#160;INT</text>
<polygon fill="none" stroke="black" points="12.12,-489 12.12,-514 40.88,-514 40.88,-489 12.12,-489"/>
<polygon fill="none" stroke="black" points="40.88,-489 40.88,-514 201.62,-514 201.62,-489 40.88,-489"/>
<text xml:space="preserve" text-anchor="start" x="45.88" y="-497.75" font-family="Helvetica,sans-Serif" font-size="14.00">balance &#160;DECIMAL &#160;(≥ 0)</text>
</g>
<!-- room_allocations -->
<g id="node4" class="node">
<title>room_allocations</title>
<polygon fill="#334155" stroke="none" points="313.88,-1080 313.88,-1105 506.38,-1105 506.38,-1080 313.88,-1080"/>
<polygon fill="none" stroke="black" points="313.88,-1080 313.88,-1105 506.38,-1105 506.38,-1080 313.88,-1080"/>
<text xml:space="preserve" text-anchor="start" x="353.88" y="-1087.7" font-family="Helvetica,sans-Serif" font-weight="bold" font-size="14.00" fill="white">room_allocations</text>
<polygon fill="#e2e8f0" stroke="none" points="313.88,-1055 313.88,-1080 342.62,-1080 342.62,-1055 313.88,-1055"/>
<polygon fill="none" stroke="black" points="313.88,-1055 313.88,-1080 342.62,-1080 342.62,-1055 313.88,-1055"/>
<text xml:space="preserve" text-anchor="start" x="318.88" y="-1062.7" font-family="Helvetica,sans-Serif" font-weight="bold" font-size="14.00">PK</text>
<polygon fill="#e2e8f0" stroke="none" points="342.62,-1055 342.62,-1080 506.38,-1080 506.38,-1055 342.62,-1055"/>
<polygon fill="none" stroke="black" points="342.62,-1055 342.62,-1080 506.38,-1080 506.38,-1055 342.62,-1055"/>
<text xml:space="preserve" text-anchor="start" x="347.62" y="-1062.7" font-family="Helvetica,sans-Serif" font-weight="bold" font-size="14.00">allocation_id</text>
<text xml:space="preserve" text-anchor="start" x="430.12" y="-1062.7" font-family="Helvetica,sans-Serif" font-size="14.00"> &#160;INT</text>
<polygon fill="none" stroke="black" points="313.88,-1030 313.88,-1055 342.62,-1055 342.62,-1030 313.88,-1030"/>
<text xml:space="preserve" text-anchor="start" x="319.62" y="-1038.75" font-family="Helvetica,sans-Serif" font-size="14.00">FK</text>
<polygon fill="none" stroke="black" points="342.62,-1030 342.62,-1055 506.38,-1055 506.38,-1030 342.62,-1030"/>
<text xml:space="preserve" text-anchor="start" x="347.62" y="-1038.75" font-family="Helvetica,sans-Serif" font-size="14.00">student_id &#160;INT</text>
<polygon fill="none" stroke="black" points="313.88,-1005 313.88,-1030 342.62,-1030 342.62,-1005 313.88,-1005"/>
<text xml:space="preserve" text-anchor="start" x="319.62" y="-1013.75" font-family="Helvetica,sans-Serif" font-size="14.00">FK</text>
<polygon fill="none" stroke="black" points="342.62,-1005 342.62,-1030 506.38,-1030 506.38,-1005 342.62,-1005"/>
<text xml:space="preserve" text-anchor="start" x="347.62" y="-1013.75" font-family="Helvetica,sans-Serif" font-size="14.00">room_id &#160;INT</text>
<polygon fill="none" stroke="black" points="313.88,-980 313.88,-1005 342.62,-1005 342.62,-980 313.88,-980"/>
<polygon fill="none" stroke="black" points="342.62,-980 342.62,-1005 506.38,-1005 506.38,-980 342.62,-980"/>
<text xml:space="preserve" text-anchor="start" x="347.62" y="-988.75" font-family="Helvetica,sans-Serif" font-size="14.00">allocated_on, vacated_on</text>
<polygon fill="none" stroke="black" points="313.88,-955 313.88,-980 342.62,-980 342.62,-955 313.88,-955"/>
<polygon fill="none" stroke="black" points="342.62,-955 342.62,-980 506.38,-980 506.38,-955 342.62,-955"/>
<text xml:space="preserve" text-anchor="start" x="347.62" y="-963.75" font-family="Helvetica,sans-Serif" font-size="14.00">status &#160;ENUM</text>
</g>
<!-- students&#45;&gt;room_allocations -->
<g id="edge1" class="edge">
<title>students:pk&#45;&gt;room_allocations:student</title>
<path fill="none" stroke="#475569" stroke-width="1.3" d="M121.35,-673C125.34,-673 253,-673 253,-673 253,-673 253,-987 253,-987 253,-987 413.8,-987 413.8,-987"/>
<polygon fill="#475569" stroke="#475569" stroke-width="1.3" points="413.94,-987 423.94,-991.5 419.38,-987 423.51,-987 423.51,-987 423.51,-987 419.38,-987 423.94,-982.5 413.94,-987"/>
<text xml:space="preserve" text-anchor="middle" x="239.12" y="-831.27" font-family="Times,serif" font-size="14.00">1 : N</text>
</g>
<!-- meal_bookings -->
<g id="node5" class="node">
<title>meal_bookings</title>
<polygon fill="#334155" stroke="none" points="335.25,-348.5 335.25,-373.5 485,-373.5 485,-348.5 335.25,-348.5"/>
<polygon fill="none" stroke="black" points="335.25,-348.5 335.25,-373.5 485,-373.5 485,-348.5 335.25,-348.5"/>
<text xml:space="preserve" text-anchor="start" x="360.62" y="-356.2" font-family="Helvetica,sans-Serif" font-weight="bold" font-size="14.00" fill="white">meal_bookings</text>
<polygon fill="#e2e8f0" stroke="none" points="335.25,-323.5 335.25,-348.5 364,-348.5 364,-323.5 335.25,-323.5"/>
<polygon fill="none" stroke="black" points="335.25,-323.5 335.25,-348.5 364,-348.5 364,-323.5 335.25,-323.5"/>
<text xml:space="preserve" text-anchor="start" x="340.25" y="-331.2" font-family="Helvetica,sans-Serif" font-weight="bold" font-size="14.00">PK</text>
<polygon fill="#e2e8f0" stroke="none" points="364,-323.5 364,-348.5 485,-348.5 485,-323.5 364,-323.5"/>
<polygon fill="none" stroke="black" points="364,-323.5 364,-348.5 485,-348.5 485,-323.5 364,-323.5"/>
<text xml:space="preserve" text-anchor="start" x="369" y="-331.2" font-family="Helvetica,sans-Serif" font-weight="bold" font-size="14.00">booking_id</text>
<text xml:space="preserve" text-anchor="start" x="441" y="-331.2" font-family="Helvetica,sans-Serif" font-size="14.00"> &#160;INT</text>
<polygon fill="none" stroke="black" points="335.25,-298.5 335.25,-323.5 364,-323.5 364,-298.5 335.25,-298.5"/>
<text xml:space="preserve" text-anchor="start" x="341" y="-307.25" font-family="Helvetica,sans-Serif" font-size="14.00">FK</text>
<polygon fill="none" stroke="black" points="364,-298.5 364,-323.5 485,-323.5 485,-298.5 364,-298.5"/>
<text xml:space="preserve" text-anchor="start" x="369" y="-307.25" font-family="Helvetica,sans-Serif" font-size="14.00">student_id &#160;INT</text>
<polygon fill="none" stroke="black" points="335.25,-273.5 335.25,-298.5 364,-298.5 364,-273.5 335.25,-273.5"/>
<polygon fill="none" stroke="black" points="364,-273.5 364,-298.5 485,-298.5 485,-273.5 364,-273.5"/>
<text xml:space="preserve" text-anchor="start" x="369" y="-282.25" font-family="Helvetica,sans-Serif" font-size="14.00">meal_date &#160;DATE</text>
<polygon fill="none" stroke="black" points="335.25,-248.5 335.25,-273.5 364,-273.5 364,-248.5 335.25,-248.5"/>
<polygon fill="none" stroke="black" points="364,-248.5 364,-273.5 485,-273.5 485,-248.5 364,-248.5"/>
<text xml:space="preserve" text-anchor="start" x="369" y="-257.25" font-family="Helvetica,sans-Serif" font-size="14.00">meal_type &#160;ENUM</text>
<polygon fill="none" stroke="black" points="335.25,-223.5 335.25,-248.5 364,-248.5 364,-223.5 335.25,-223.5"/>
<polygon fill="none" stroke="black" points="364,-223.5 364,-248.5 485,-248.5 485,-223.5 364,-223.5"/>
<text xml:space="preserve" text-anchor="start" x="369" y="-232.25" font-family="Helvetica,sans-Serif" font-size="14.00">price &#160;DECIMAL</text>
<polygon fill="none" stroke="black" points="335.25,-198.5 335.25,-223.5 364,-223.5 364,-198.5 335.25,-198.5"/>
<polygon fill="none" stroke="black" points="364,-198.5 364,-223.5 485,-223.5 485,-198.5 364,-198.5"/>
<text xml:space="preserve" text-anchor="start" x="369" y="-207.25" font-family="Helvetica,sans-Serif" font-size="14.00">status &#160;ENUM</text>
</g>
<!-- students&#45;&gt;meal_bookings -->
<g id="edge3" class="edge">
<title>students:pk&#45;&gt;meal_bookings:student</title>
<path fill="none" stroke="#475569" stroke-width="1.3" d="M202,-651.44C202,-646.75 202,-346.5 202,-346.5 202,-346.5 413.76,-346.5 413.76,-346.5"/>
<polygon fill="#475569" stroke="#475569" stroke-width="1.3" points="413.9,-346.5 423.9,-351 419.34,-346.5 423.47,-346.5 423.47,-346.5 423.47,-346.5 419.34,-346.5 423.9,-342 413.9,-346.5"/>
</g>
<!-- fines -->
<g id="node6" class="node">
<title>fines</title>
<polygon fill="#334155" stroke="none" points="333.38,-129 333.38,-154 486.88,-154 486.88,-129 333.38,-129"/>
<polygon fill="none" stroke="black" points="333.38,-129 333.38,-154 486.88,-154 486.88,-129 333.38,-129"/>
<text xml:space="preserve" text-anchor="start" x="394.38" y="-136.7" font-family="Helvetica,sans-Serif" font-weight="bold" font-size="14.00" fill="white">fines</text>
<polygon fill="#e2e8f0" stroke="none" points="333.38,-104 333.38,-129 362.12,-129 362.12,-104 333.38,-104"/>
<polygon fill="none" stroke="black" points="333.38,-104 333.38,-129 362.12,-129 362.12,-104 333.38,-104"/>
<text xml:space="preserve" text-anchor="start" x="338.38" y="-111.7" font-family="Helvetica,sans-Serif" font-weight="bold" font-size="14.00">PK</text>
<polygon fill="#e2e8f0" stroke="none" points="362.12,-104 362.12,-129 486.88,-129 486.88,-104 362.12,-104"/>
<polygon fill="none" stroke="black" points="362.12,-104 362.12,-129 486.88,-129 486.88,-104 362.12,-104"/>
<text xml:space="preserve" text-anchor="start" x="367.12" y="-111.7" font-family="Helvetica,sans-Serif" font-weight="bold" font-size="14.00">fine_id</text>
<text xml:space="preserve" text-anchor="start" x="410.62" y="-111.7" font-family="Helvetica,sans-Serif" font-size="14.00"> &#160;INT</text>
<polygon fill="none" stroke="black" points="333.38,-79 333.38,-104 362.12,-104 362.12,-79 333.38,-79"/>
<text xml:space="preserve" text-anchor="start" x="339.12" y="-87.75" font-family="Helvetica,sans-Serif" font-size="14.00">FK</text>
<polygon fill="none" stroke="black" points="362.12,-79 362.12,-104 486.88,-104 486.88,-79 362.12,-79"/>
<text xml:space="preserve" text-anchor="start" x="367.12" y="-87.75" font-family="Helvetica,sans-Serif" font-size="14.00">student_id &#160;INT</text>
<polygon fill="none" stroke="black" points="333.38,-54 333.38,-79 362.12,-79 362.12,-54 333.38,-54"/>
<polygon fill="none" stroke="black" points="362.12,-54 362.12,-79 486.88,-79 486.88,-54 362.12,-54"/>
<text xml:space="preserve" text-anchor="start" x="367.12" y="-62.75" font-family="Helvetica,sans-Serif" font-size="14.00">reason &#160;VARCHAR</text>
<polygon fill="none" stroke="black" points="333.38,-29 333.38,-54 362.12,-54 362.12,-29 333.38,-29"/>
<polygon fill="none" stroke="black" points="362.12,-29 362.12,-54 486.88,-54 486.88,-29 362.12,-29"/>
<text xml:space="preserve" text-anchor="start" x="367.12" y="-37.75" font-family="Helvetica,sans-Serif" font-size="14.00">amount &#160;DECIMAL</text>
<polygon fill="none" stroke="black" points="333.38,-4 333.38,-29 362.12,-29 362.12,-4 333.38,-4"/>
<polygon fill="none" stroke="black" points="362.12,-4 362.12,-29 486.88,-29 486.88,-4 362.12,-4"/>
<text xml:space="preserve" text-anchor="start" x="367.12" y="-12.75" font-family="Helvetica,sans-Serif" font-size="14.00">status &#160;ENUM</text>
</g>
<!-- students&#45;&gt;fines -->
<g id="edge4" class="edge">
<title>students:pk&#45;&gt;fines:student</title>
<path fill="none" stroke="#475569" stroke-width="1.3" d="M195,-639.01C195,-555.29 195,-79 195,-79 195,-79 351.82,-79 351.82,-79"/>
<polygon fill="#475569" stroke="#475569" stroke-width="1.3" points="351.96,-79 361.96,-83.5 357.39,-79 361.52,-79 361.52,-79 361.52,-79 357.39,-79 361.96,-74.5 351.96,-79"/>
</g>
<!-- bills -->
<g id="node7" class="node">
<title>bills</title>
<polygon fill="#be123c" stroke="none" points="300.75,-812 300.75,-837 519.5,-837 519.5,-812 300.75,-812"/>
<polygon fill="none" stroke="black" points="300.75,-812 300.75,-837 519.5,-837 519.5,-812 300.75,-812"/>
<text xml:space="preserve" text-anchor="start" x="396.62" y="-819.7" font-family="Helvetica,sans-Serif" font-weight="bold" font-size="14.00" fill="white">bills</text>
<polygon fill="#ffe4e6" stroke="none" points="300.75,-787 300.75,-812 329.5,-812 329.5,-787 300.75,-787"/>
<polygon fill="none" stroke="black" points="300.75,-787 300.75,-812 329.5,-812 329.5,-787 300.75,-787"/>
<text xml:space="preserve" text-anchor="start" x="305.75" y="-794.7" font-family="Helvetica,sans-Serif" font-weight="bold" font-size="14.00">PK</text>
<polygon fill="#ffe4e6" stroke="none" points="329.5,-787 329.5,-812 519.5,-812 519.5,-787 329.5,-787"/>
<polygon fill="none" stroke="black" points="329.5,-787 329.5,-812 519.5,-812 519.5,-787 329.5,-787"/>
<text xml:space="preserve" text-anchor="start" x="334.5" y="-794.7" font-family="Helvetica,sans-Serif" font-weight="bold" font-size="14.00">bill_id</text>
<text xml:space="preserve" text-anchor="start" x="373.5" y="-794.7" font-family="Helvetica,sans-Serif" font-size="14.00"> &#160;INT</text>
<polygon fill="none" stroke="black" points="300.75,-762 300.75,-787 329.5,-787 329.5,-762 300.75,-762"/>
<text xml:space="preserve" text-anchor="start" x="306.5" y="-770.75" font-family="Helvetica,sans-Serif" font-size="14.00">FK</text>
<polygon fill="none" stroke="black" points="329.5,-762 329.5,-787 519.5,-787 519.5,-762 329.5,-762"/>
<text xml:space="preserve" text-anchor="start" x="334.5" y="-770.75" font-family="Helvetica,sans-Serif" font-size="14.00">student_id &#160;INT</text>
<polygon fill="none" stroke="black" points="300.75,-737 300.75,-762 329.5,-762 329.5,-737 300.75,-737"/>
<polygon fill="none" stroke="black" points="329.5,-737 329.5,-762 519.5,-762 519.5,-737 329.5,-737"/>
<text xml:space="preserve" text-anchor="start" x="334.5" y="-745.75" font-family="Helvetica,sans-Serif" font-size="14.00">bill_month &#160;DATE</text>
<polygon fill="none" stroke="black" points="300.75,-712 300.75,-737 329.5,-737 329.5,-712 300.75,-712"/>
<polygon fill="none" stroke="black" points="329.5,-712 329.5,-737 519.5,-737 519.5,-712 329.5,-712"/>
<text xml:space="preserve" text-anchor="start" x="334.5" y="-720.75" font-family="Helvetica,sans-Serif" font-size="14.00">rent_amount, mess_amount</text>
<polygon fill="none" stroke="black" points="300.75,-687 300.75,-712 329.5,-712 329.5,-687 300.75,-687"/>
<polygon fill="none" stroke="black" points="329.5,-687 329.5,-712 519.5,-712 519.5,-687 329.5,-687"/>
<text xml:space="preserve" text-anchor="start" x="334.5" y="-695.75" font-family="Helvetica,sans-Serif" font-size="14.00">fine_amount &#160;DECIMAL</text>
<polygon fill="none" stroke="black" points="300.75,-662 300.75,-687 329.5,-687 329.5,-662 300.75,-662"/>
<polygon fill="none" stroke="black" points="329.5,-662 329.5,-687 519.5,-687 519.5,-662 329.5,-662"/>
<text xml:space="preserve" text-anchor="start" x="334.5" y="-670.75" font-family="Helvetica,sans-Serif" font-size="14.00">total_amount &#160;(GENERATED)</text>
<polygon fill="none" stroke="black" points="300.75,-637 300.75,-662 329.5,-662 329.5,-637 300.75,-637"/>
<polygon fill="none" stroke="black" points="329.5,-637 329.5,-662 519.5,-662 519.5,-637 329.5,-637"/>
<text xml:space="preserve" text-anchor="start" x="334.5" y="-645.75" font-family="Helvetica,sans-Serif" font-size="14.00">paid_amount, status</text>
</g>
<!-- students&#45;&gt;bills -->
<g id="edge5" class="edge">
<title>students:pk&#45;&gt;bills:student</title>
<path fill="none" stroke="#475569" stroke-width="1.3" d="M201.32,-653C201.32,-653 413.83,-653 413.83,-653"/>
<polygon fill="#475569" stroke="#475569" stroke-width="1.3" points="413.97,-653 423.97,-657.5 419.4,-653 423.53,-653 423.53,-653 423.53,-653 419.4,-653 423.97,-648.5 413.97,-653"/>
</g>
<!-- payments -->
<g id="node8" class="node">
<title>payments</title>
<polygon fill="#334155" stroke="none" points="614.5,-897.5 614.5,-922.5 768,-922.5 768,-897.5 614.5,-897.5"/>
<polygon fill="none" stroke="black" points="614.5,-897.5 614.5,-922.5 768,-922.5 768,-897.5 614.5,-897.5"/>
<text xml:space="preserve" text-anchor="start" x="659.38" y="-905.2" font-family="Helvetica,sans-Serif" font-weight="bold" font-size="14.00" fill="white">payments</text>
<polygon fill="#e2e8f0" stroke="none" points="614.5,-872.5 614.5,-897.5 643.25,-897.5 643.25,-872.5 614.5,-872.5"/>
<polygon fill="none" stroke="black" points="614.5,-872.5 614.5,-897.5 643.25,-897.5 643.25,-872.5 614.5,-872.5"/>
<text xml:space="preserve" text-anchor="start" x="619.5" y="-880.2" font-family="Helvetica,sans-Serif" font-weight="bold" font-size="14.00">PK</text>
<polygon fill="#e2e8f0" stroke="none" points="643.25,-872.5 643.25,-897.5 768,-897.5 768,-872.5 643.25,-872.5"/>
<polygon fill="none" stroke="black" points="643.25,-872.5 643.25,-897.5 768,-897.5 768,-872.5 643.25,-872.5"/>
<text xml:space="preserve" text-anchor="start" x="648.25" y="-880.2" font-family="Helvetica,sans-Serif" font-weight="bold" font-size="14.00">payment_id</text>
<text xml:space="preserve" text-anchor="start" x="724" y="-880.2" font-family="Helvetica,sans-Serif" font-size="14.00"> &#160;INT</text>
<polygon fill="none" stroke="black" points="614.5,-847.5 614.5,-872.5 643.25,-872.5 643.25,-847.5 614.5,-847.5"/>
<text xml:space="preserve" text-anchor="start" x="620.25" y="-856.25" font-family="Helvetica,sans-Serif" font-size="14.00">FK</text>
<polygon fill="none" stroke="black" points="643.25,-847.5 643.25,-872.5 768,-872.5 768,-847.5 643.25,-847.5"/>
<text xml:space="preserve" text-anchor="start" x="648.25" y="-856.25" font-family="Helvetica,sans-Serif" font-size="14.00">student_id &#160;INT</text>
<polygon fill="none" stroke="black" points="614.5,-822.5 614.5,-847.5 643.25,-847.5 643.25,-822.5 614.5,-822.5"/>
<text xml:space="preserve" text-anchor="start" x="620.25" y="-831.25" font-family="Helvetica,sans-Serif" font-size="14.00">FK</text>
<polygon fill="none" stroke="black" points="643.25,-822.5 643.25,-847.5 768,-847.5 768,-822.5 643.25,-822.5"/>
<text xml:space="preserve" text-anchor="start" x="648.25" y="-831.25" font-family="Helvetica,sans-Serif" font-size="14.00">bill_id &#160;INT &#160;(NULL)</text>
<polygon fill="none" stroke="black" points="614.5,-797.5 614.5,-822.5 643.25,-822.5 643.25,-797.5 614.5,-797.5"/>
<polygon fill="none" stroke="black" points="643.25,-797.5 643.25,-822.5 768,-822.5 768,-797.5 643.25,-797.5"/>
<text xml:space="preserve" text-anchor="start" x="648.25" y="-806.25" font-family="Helvetica,sans-Serif" font-size="14.00">amount &#160;DECIMAL</text>
<polygon fill="none" stroke="black" points="614.5,-772.5 614.5,-797.5 643.25,-797.5 643.25,-772.5 614.5,-772.5"/>
<polygon fill="none" stroke="black" points="643.25,-772.5 643.25,-797.5 768,-797.5 768,-772.5 643.25,-772.5"/>
<text xml:space="preserve" text-anchor="start" x="648.25" y="-781.25" font-family="Helvetica,sans-Serif" font-size="14.00">method &#160;ENUM</text>
<polygon fill="none" stroke="black" points="614.5,-747.5 614.5,-772.5 643.25,-772.5 643.25,-747.5 614.5,-747.5"/>
<polygon fill="none" stroke="black" points="643.25,-747.5 643.25,-772.5 768,-772.5 768,-747.5 643.25,-747.5"/>
<text xml:space="preserve" text-anchor="start" x="648.25" y="-756.25" font-family="Helvetica,sans-Serif" font-size="14.00">payment_date</text>
</g>
<!-- students&#45;&gt;payments -->
<g id="edge6" class="edge">
<title>students:pk&#45;&gt;payments:student</title>
<path fill="none" stroke="#475569" stroke-width="1.3" d="M121.35,-614.75C130.12,-614.75 691,-614.75 691,-614.75 691,-614.75 691,-836.93 691,-836.93"/>
<polygon fill="#475569" stroke="#475569" stroke-width="1.3" points="691,-837.07 686.5,-847.07 691,-842.5 691,-846.63 691,-846.63 691,-846.63 691,-842.5 695.5,-847.07 691,-837.07"/>
</g>
<!-- complaints -->
<g id="node9" class="node">
<title>complaints</title>
<polygon fill="#334155" stroke="none" points="320.25,-567.5 320.25,-592.5 500,-592.5 500,-567.5 320.25,-567.5"/>
<polygon fill="none" stroke="black" points="320.25,-567.5 320.25,-592.5 500,-592.5 500,-567.5 320.25,-567.5"/>
<text xml:space="preserve" text-anchor="start" x="374.12" y="-575.2" font-family="Helvetica,sans-Serif" font-weight="bold" font-size="14.00" fill="white">complaints</text>
<polygon fill="#e2e8f0" stroke="none" points="320.25,-542.5 320.25,-567.5 349,-567.5 349,-542.5 320.25,-542.5"/>
<polygon fill="none" stroke="black" points="320.25,-542.5 320.25,-567.5 349,-567.5 349,-542.5 320.25,-542.5"/>
<text xml:space="preserve" text-anchor="start" x="325.25" y="-550.2" font-family="Helvetica,sans-Serif" font-weight="bold" font-size="14.00">PK</text>
<polygon fill="#e2e8f0" stroke="none" points="349,-542.5 349,-567.5 500,-567.5 500,-542.5 349,-542.5"/>
<polygon fill="none" stroke="black" points="349,-542.5 349,-567.5 500,-567.5 500,-542.5 349,-542.5"/>
<text xml:space="preserve" text-anchor="start" x="354" y="-550.2" font-family="Helvetica,sans-Serif" font-weight="bold" font-size="14.00">complaint_id</text>
<text xml:space="preserve" text-anchor="start" x="438" y="-550.2" font-family="Helvetica,sans-Serif" font-size="14.00"> &#160;INT</text>
<polygon fill="none" stroke="black" points="320.25,-517.5 320.25,-542.5 349,-542.5 349,-517.5 320.25,-517.5"/>
<text xml:space="preserve" text-anchor="start" x="326" y="-526.25" font-family="Helvetica,sans-Serif" font-size="14.00">FK</text>
<polygon fill="none" stroke="black" points="349,-517.5 349,-542.5 500,-542.5 500,-517.5 349,-517.5"/>
<text xml:space="preserve" text-anchor="start" x="354" y="-526.25" font-family="Helvetica,sans-Serif" font-size="14.00">student_id &#160;INT</text>
<polygon fill="none" stroke="black" points="320.25,-492.5 320.25,-517.5 349,-517.5 349,-492.5 320.25,-492.5"/>
<polygon fill="none" stroke="black" points="349,-492.5 349,-517.5 500,-517.5 500,-492.5 349,-492.5"/>
<text xml:space="preserve" text-anchor="start" x="354" y="-501.25" font-family="Helvetica,sans-Serif" font-size="14.00">category, subject</text>
<polygon fill="none" stroke="black" points="320.25,-467.5 320.25,-492.5 349,-492.5 349,-467.5 320.25,-467.5"/>
<polygon fill="none" stroke="black" points="349,-467.5 349,-492.5 500,-492.5 500,-467.5 349,-467.5"/>
<text xml:space="preserve" text-anchor="start" x="354" y="-476.25" font-family="Helvetica,sans-Serif" font-size="14.00">description &#160;TEXT</text>
<polygon fill="none" stroke="black" points="320.25,-442.5 320.25,-467.5 349,-467.5 349,-442.5 320.25,-442.5"/>
<polygon fill="none" stroke="black" points="349,-442.5 349,-467.5 500,-467.5 500,-442.5 349,-442.5"/>
<text xml:space="preserve" text-anchor="start" x="354" y="-451.25" font-family="Helvetica,sans-Serif" font-size="14.00">status &#160;ENUM</text>
<polygon fill="none" stroke="black" points="320.25,-417.5 320.25,-442.5 349,-442.5 349,-417.5 320.25,-417.5"/>
<polygon fill="none" stroke="black" points="349,-417.5 349,-442.5 500,-442.5 500,-417.5 349,-417.5"/>
<text xml:space="preserve" text-anchor="start" x="354" y="-426.25" font-family="Helvetica,sans-Serif" font-size="14.00">created_at, resolved_at</text>
</g>
<!-- students&#45;&gt;complaints -->
<g id="edge8" class="edge">
<title>students:pk&#45;&gt;complaints:student</title>
<path fill="none" stroke="#475569" stroke-width="1.3" d="M121.31,-540.75C121.31,-540.75 338.43,-540.75 338.43,-540.75"/>
<polygon fill="#475569" stroke="#475569" stroke-width="1.3" points="338.57,-540.75 348.57,-545.25 344,-540.75 348.13,-540.75 348.13,-540.75 348.13,-540.75 344,-540.75 348.57,-536.25 338.57,-540.75"/>
</g>
<!-- rooms -->
<g id="node3" class="node">
<title>rooms</title>
<polygon fill="#b45309" stroke="none" points="8,-1030 8,-1055 205.75,-1055 205.75,-1030 8,-1030"/>
<polygon fill="none" stroke="black" points="8,-1030 8,-1055 205.75,-1055 205.75,-1030 8,-1030"/>
<text xml:space="preserve" text-anchor="start" x="85.88" y="-1037.7" font-family="Helvetica,sans-Serif" font-weight="bold" font-size="14.00" fill="white">rooms</text>
<polygon fill="#fef3c7" stroke="none" points="8,-1005 8,-1030 36.75,-1030 36.75,-1005 8,-1005"/>
<polygon fill="none" stroke="black" points="8,-1005 8,-1030 36.75,-1030 36.75,-1005 8,-1005"/>
<text xml:space="preserve" text-anchor="start" x="13" y="-1012.7" font-family="Helvetica,sans-Serif" font-weight="bold" font-size="14.00">PK</text>
<polygon fill="#fef3c7" stroke="none" points="36.75,-1005 36.75,-1030 205.75,-1030 205.75,-1005 36.75,-1005"/>
<polygon fill="none" stroke="black" points="36.75,-1005 36.75,-1030 205.75,-1030 205.75,-1005 36.75,-1005"/>
<text xml:space="preserve" text-anchor="start" x="41.75" y="-1012.7" font-family="Helvetica,sans-Serif" font-weight="bold" font-size="14.00">room_id</text>
<text xml:space="preserve" text-anchor="start" x="95.75" y="-1012.7" font-family="Helvetica,sans-Serif" font-size="14.00"> &#160;INT</text>
<polygon fill="none" stroke="black" points="8,-980 8,-1005 36.75,-1005 36.75,-980 8,-980"/>
<text xml:space="preserve" text-anchor="start" x="13" y="-988.75" font-family="Helvetica,sans-Serif" font-size="14.00">UK</text>
<polygon fill="none" stroke="black" points="36.75,-980 36.75,-1005 205.75,-1005 205.75,-980 36.75,-980"/>
<text xml:space="preserve" text-anchor="start" x="41.75" y="-988.75" font-family="Helvetica,sans-Serif" font-size="14.00">room_number &#160;VARCHAR</text>
<polygon fill="none" stroke="black" points="8,-955 8,-980 36.75,-980 36.75,-955 8,-955"/>
<polygon fill="none" stroke="black" points="36.75,-955 36.75,-980 205.75,-980 205.75,-955 36.75,-955"/>
<text xml:space="preserve" text-anchor="start" x="41.75" y="-963.75" font-family="Helvetica,sans-Serif" font-size="14.00">block, floor, room_type</text>
<polygon fill="none" stroke="black" points="8,-930 8,-955 36.75,-955 36.75,-930 8,-930"/>
<polygon fill="none" stroke="black" points="36.75,-930 36.75,-955 205.75,-955 205.75,-930 36.75,-930"/>
<text xml:space="preserve" text-anchor="start" x="41.75" y="-938.75" font-family="Helvetica,sans-Serif" font-size="14.00">capacity &#160;INT &#160;(&gt; 0)</text>
<polygon fill="none" stroke="black" points="8,-905 8,-930 36.75,-930 36.75,-905 8,-905"/>
<polygon fill="none" stroke="black" points="36.75,-905 36.75,-930 205.75,-930 205.75,-905 36.75,-905"/>
<text xml:space="preserve" text-anchor="start" x="41.75" y="-913.75" font-family="Helvetica,sans-Serif" font-size="14.00">available_beds &#160;INT</text>
<polygon fill="none" stroke="black" points="8,-880 8,-905 36.75,-905 36.75,-880 8,-880"/>
<polygon fill="none" stroke="black" points="36.75,-880 36.75,-905 205.75,-905 205.75,-880 36.75,-880"/>
<text xml:space="preserve" text-anchor="start" x="41.75" y="-888.75" font-family="Helvetica,sans-Serif" font-size="14.00">monthly_rent &#160;DECIMAL</text>
<polygon fill="none" stroke="black" points="8,-855 8,-880 36.75,-880 36.75,-855 8,-855"/>
<polygon fill="none" stroke="black" points="36.75,-855 36.75,-880 205.75,-880 205.75,-855 36.75,-855"/>
<text xml:space="preserve" text-anchor="start" x="41.75" y="-863.75" font-family="Helvetica,sans-Serif" font-size="14.00">status &#160;ENUM</text>
</g>
<!-- rooms&#45;&gt;room_allocations -->
<g id="edge2" class="edge">
<title>rooms:pk&#45;&gt;room_allocations:room</title>
<path fill="none" stroke="#475569" stroke-width="1.3" d="M205.72,-1023C205.72,-1023 332.26,-1023 332.26,-1023"/>
<polygon fill="#475569" stroke="#475569" stroke-width="1.3" points="332.4,-1023 342.4,-1027.5 337.83,-1023 341.96,-1023 341.96,-1023 341.96,-1023 337.83,-1023 342.4,-1018.5 332.4,-1023"/>
</g>
<!-- bills&#45;&gt;payments -->
<g id="edge7" class="edge">
<title>bills:pk&#45;&gt;payments:bill</title>
<path fill="none" stroke="#475569" stroke-width="1.3" d="M519.28,-792.25C519.28,-792.25 694.97,-792.25 694.97,-792.25"/>
<polygon fill="#475569" stroke="#475569" stroke-width="1.3" points="695.11,-792.25 705.11,-796.75 700.55,-792.25 704.68,-792.25 704.68,-792.25 704.68,-792.25 700.55,-792.25 705.11,-787.75 695.11,-792.25"/>
</g>
</g>
</svg>
